<svg class="svg-text" version="1.1"
  xmlns="http://www.w3.org/2000/svg" width="210px" height="36px">
  <path fill="#fff" d="M11.005859375,18.041015625q-2.392578125,0-3.705078125,1.7978515625t-1.3125,5.0107421875q0,6.685546875,5.017578125,6.685546875q2.10546875,0,5.099609375-1.052734375l0,3.5546875q-2.4609375,1.025390625-5.49609375,1.025390625q-4.361328125,0-6.671875-2.6455078125t-2.310546875-7.5947265625q0-3.1171875,1.134765625-5.4619140625t3.2607421875-3.595703125t4.9833984375-1.2509765625q2.912109375,0,5.8515625,1.408203125l-1.3671875,3.4453125q-1.12109375-0.533203125-2.255859375-0.9296875t-2.228515625-0.396484375z M26.12380859375,34.7890625l-4.169921875,0l0-21.2734375l4.169921875,0l0,21.2734375z M35.7456640625,27.119140625q0,2.26953125,0.7451171875,3.431640625t2.4267578125,1.162109375q1.66796875,0,2.3994140625-1.1552734375t0.7314453125-3.4384765625q0-2.26953125-0.73828125-3.404296875t-2.419921875-1.134765625q-1.66796875,0-2.40625,1.1279296875t-0.73828125,3.4111328125z M46.3140234375,27.119140625q0,3.732421875-1.96875,5.837890625t-5.482421875,2.10546875q-2.201171875,0-3.8828125-0.9638671875t-2.583984375-2.7685546875t-0.90234375-4.2109375q0-3.74609375,1.955078125-5.82421875t5.49609375-2.078125q2.201171875,0,3.8828125,0.95703125t2.583984375,2.748046875t0.90234375,4.197265625z M62.51205078125,34.7890625l-0.560546875-1.955078125l-0.21875,0q-0.669921875,1.06640625-1.900390625,1.6474609375t-2.802734375,0.5810546875q-2.693359375,0-4.060546875-1.4423828125t-1.3671875-4.1494140625l0-9.966796875l4.169921875,0l0,8.927734375q0,1.654296875,0.587890625,2.4814453125t1.873046875,0.8271484375q1.75,0,2.529296875-1.1689453125t0.779296875-3.8759765625l0-7.19140625l4.169921875,0l0,15.28515625l-3.19921875,0z M76.850703125,35.0625q-2.693359375,0-4.2314453125-2.091796875t-1.5380859375-5.796875q0-3.759765625,1.5654296875-5.8583984375t4.3134765625-2.0986328125q2.884765625,0,4.40234375,2.2421875l0.13671875,0q-0.314453125-1.708984375-0.314453125-3.048828125l0-4.89453125l4.18359375,0l0,21.2734375l-3.19921875,0l-0.806640625-1.982421875l-0.177734375,0q-1.421875,2.255859375-4.333984375,2.255859375z M78.31359375,31.740234375q1.599609375,0,2.3447265625-0.9296875t0.8134765625-3.158203125l0-0.451171875q0-2.4609375-0.7587890625-3.52734375t-2.4677734375-1.06640625q-1.39453125,0-2.1669921875,1.1826171875t-0.7724609375,3.4384765625t0.779296875,3.3837890625t2.228515625,1.1279296875z" />
  <path fill="#fff" d="M105.848,34.8l0-1.764l-4.984,0q-3.472,0-5.824-2.352t-2.352-5.824q0-3.192,2.352-5.488t5.824-2.296l4.984,0l0-1.82l-4.984,0q-4.228,0-7.084,2.8q-2.856,2.772-2.856,6.804q0,4.284,2.856,7.084q2.8,2.856,7.084,2.856l4.984,0z M117.04352,15.088q-3.136,0-5.264,2.268q-2.1,2.24-2.1,5.46l0,11.984l1.764,0l0-8.792l11.256,0l0,8.792l1.764,0l0-11.984q0-3.22-2.1-5.46q-2.184-2.268-5.32-2.268z M122.69952,24.272l-11.256,0l0-1.456q0-2.408,1.624-4.172q1.652-1.792,3.976-1.792t4.032,1.792q1.624,1.764,1.624,4.172l0,1.456z M128.71504,34.8l1.736,0l0-11.872q0-2.352,1.792-4.2q1.792-1.792,4.144-1.792t4.2,1.792q1.792,1.848,1.792,4.2l0,11.872l1.736,0l0-11.872q0-3.192-2.268-5.46t-5.46-2.268q-3.136,0-5.404,2.268t-2.268,5.46l0,11.872z M163.17856,15.088l-2.128,0l-5.964,14.812l-5.628-14.812l-1.764,0l7.392,19.712z M174.09408,15.088q-3.136,0-5.264,2.268q-2.1,2.24-2.1,5.46l0,11.984l1.764,0l0-8.792l11.256,0l0,8.792l1.764,0l0-11.984q0-3.22-2.1-5.46q-2.184-2.268-5.32-2.268z M179.75008,24.272l-11.256,0l0-1.456q0-2.408,1.624-4.172q1.652-1.792,3.976-1.792t4.032,1.792q1.624,1.764,1.624,4.172l0,1.456z M190.3016,17.244l10.556,0l0-2.128l-10.556,0q-2.072,0-3.472,1.624q-1.428,1.652-1.428,4.004q0,2.128,1.428,3.696q1.4,1.596,3.472,1.596l2.8,0l2.856,0q1.26,0,2.24,1.064q0.924,1.12,0.924,2.436q0,1.568-0.91,2.548t-2.254,0.98l-10.556,0l0,1.736l10.556,0q2.1,0,3.5-1.456t1.4-3.808q0-2.128-1.4-3.696q-1.428-1.568-3.5-1.568l-2.856,0l-2.8,0q-1.288,0-2.212-1.12q-0.952-1.036-0.952-2.408q0-1.568,0.91-2.534t2.254-0.966z" />
</svg>
