<svg xmlns="http://www.w3.org/2000/svg" version="1.1" viewBox="0.00 0.00 487.00 405.00" width="50" height="50">
  <path fill="#fff" d="
            M 397.12 253.12
            Q 403.86 252.01 409.23 249.83
            Q 425.97 243.04 431.83 225.95
            Q 436.13 213.41 432.55 200.97
            Q 429.93 191.87 425.11 185.50
            C 420.93 179.99 413.76 175.85 408.02 171.65
            C 404.46 169.04 403.20 164.10 403.23 159.93
            C 403.25 157.12 402.51 154.57 402.20 151.76
            Q 402.02 150.09 401.60 148.41
            Q 398.93 137.48 391.22 126.03
            C 383.12 114.01 368.44 106.25 354.70 103.98
            C 344.52 102.29 334.19 105.18 324.34 107.13
            C 317.71 108.44 310.99 102.05 307.52 96.93
            Q 301.78 88.46 295.53 80.48
            Q 289.99 73.39 284.90 69.46
            Q 278.11 64.22 266.64 57.42
            Q 251.84 48.65 236.87 45.15
            Q 232.24 44.07 227.00 43.11
            C 224.24 42.59 221.60 42.76 218.90 42.25
            Q 215.65 41.64 211.73 41.77
            Q 198.93 42.20 187.75 44.64
            Q 170.22 48.48 154.17 58.40
            Q 151.30 60.18 142.55 66.61
            Q 135.02 72.16 131.52 75.56
            C 123.56 83.32 118.06 92.88 112.53 102.97
            Q 99.81 126.21 99.29 156.04
            C 99.27 157.31 98.69 159.40 98.27 160.56
            Q 95.79 167.50 89.01 169.18
            C 87.03 169.67 84.80 170.22 82.74 170.36
            C 68.40 171.37 56.13 176.85 48.76 189.16
            C 41.09 201.96 39.62 218.45 46.89 231.88
            Q 55.42 247.62 73.78 251.98
            C 76.55 252.64 80.99 253.48 84.43 253.47
            Q 108.22 253.43 133.08 253.41
            Q 133.83 253.41 133.63 254.13
            Q 129.46 269.27 132.50 285.91
            A 0.79 0.78 89.2 0 1 131.61 286.83
            Q 129.09 286.42 126.73 286.40
            Q 111.60 286.24 95.61 286.76
            Q 89.31 286.97 80.47 286.62
            Q 72.02 286.29 65.68 284.70
            C 52.69 281.45 41.82 274.67 31.24 266.04
            C 22.92 259.26 18.84 251.92 14.87 241.95
            Q 10.32 230.52 9.30 222.37
            Q 8.61 216.79 8.83 209.52
            C 9.21 196.86 13.36 183.09 19.24 172.78
            Q 22.54 166.98 29.51 160.26
            C 39.67 150.47 51.37 142.42 64.67 139.26
            C 65.74 139.01 66.64 138.40 66.83 137.23
            C 69.04 123.60 71.97 111.00 77.77 98.29
            C 82.41 88.12 86.28 77.83 93.54 68.94
            Q 106.41 53.19 118.72 42.33
            C 124.81 36.95 131.80 33.01 138.75 28.83
            Q 144.35 25.46 149.45 23.00
            Q 189.39 3.77 232.87 10.13
            C 251.94 12.91 271.05 20.53 287.12 30.51
            Q 293.07 34.20 299.64 38.65
            C 311.54 46.71 321.26 58.07 329.67 70.00
            Q 330.62 71.35 332.25 71.10
            Q 341.94 69.63 350.11 70.16
            C 367.19 71.27 382.70 75.59 396.51 85.94
            C 407.97 94.53 420.20 104.23 425.93 117.77
            Q 432.69 133.71 436.10 149.35
            A 3.51 3.49 -75.9 0 0 437.23 151.25
            C 444.97 157.98 454.08 165.83 458.38 174.81
            Q 467.85 194.57 467.72 214.56
            Q 467.71 217.13 467.34 219.79
            Q 466.97 222.55 466.48 225.46
            Q 465.68 230.30 463.47 236.52
            C 460.15 245.88 456.50 254.62 449.68 261.78
            C 444.32 267.41 436.95 272.48 430.34 276.59
            Q 422.22 281.64 412.28 284.42
            Q 405.43 286.33 392.97 286.66
            Q 376.59 287.10 360.19 286.62
            C 343.84 286.14 326.94 286.26 310.65 286.73
            A 0.86 0.85 -82.6 0 1 309.81 285.63
            Q 312.69 276.09 312.40 266.72
            Q 312.31 263.77 311.85 260.74
            Q 311.34 257.36 310.89 254.08
            Q 310.81 253.46 311.43 253.46
            L 392.73 253.48
            Q 394.94 253.48 397.12 253.12
            Z" />
  <path fill="#fff" d="
            M 237.39 287.17
            A 0.44 0.44 0.0 0 0 236.98 286.61
            C 218.45 286.19 200.12 286.93 181.41 286.42
            Q 176.61 286.29 173.62 284.62
            C 166.26 280.52 163.55 272.01 167.60 264.39
            C 171.93 256.27 176.77 248.84 181.86 240.78
            C 188.67 229.98 194.73 217.96 201.42 208.29
            Q 213.23 191.22 223.40 172.79
            Q 229.22 162.26 236.34 152.29
            Q 236.82 151.61 237.02 152.42
            Q 237.09 152.71 237.00 152.99
            C 231.72 168.67 226.39 184.03 222.17 200.01
            Q 217.19 218.89 210.95 236.89
            C 209.26 241.79 207.93 247.10 206.26 252.09
            A 1.07 1.06 -80.9 0 0 207.27 253.49
            Q 231.04 253.41 258.64 253.35
            C 266.05 253.34 272.10 254.89 275.81 261.48
            Q 279.29 267.66 276.90 273.36
            Q 274.95 278.02 270.88 284.52
            C 265.10 293.77 258.49 303.22 253.37 312.68
            Q 247.01 324.45 242.58 330.98
            C 229.60 350.12 218.64 369.60 207.10 389.08
            Q 206.60 389.92 206.33 390.08
            Q 205.11 390.77 205.56 389.44
            C 211.63 371.42 217.34 355.10 222.26 336.50
            C 226.75 319.50 232.52 303.48 237.39 287.17
            Z" />
</svg>
